<svg width="103" height="26" viewBox="0 0 103 26" fill="none" xmlns="http://www.w3.org/2000/svg">
<g clip-path="url(#clip0_5517_19727)">
<path d="M55.6999 17.4033H53.3199V10.5633H55.6999V17.4033ZM54.5099 10.2333C54.1699 10.2333 53.8699 10.1433 53.6299 9.97327C53.3799 9.79327 53.2599 9.57327 53.2599 9.30327C53.2599 9.03327 53.3799 8.81327 53.6299 8.64327C53.8799 8.47327 54.1699 8.38327 54.5099 8.38327C54.8499 8.38327 55.1499 8.47327 55.3999 8.64327C55.6499 8.81327 55.7799 9.03327 55.7799 9.30327C55.7799 9.57327 55.6499 9.79327 55.3999 9.97327C55.1499 10.1533 54.8499 10.2333 54.5099 10.2333ZM51.7299 17.4033H49.3499V10.5633H51.7299V17.4033ZM50.5499 10.2333C50.2099 10.2333 49.9099 10.1433 49.6699 9.97327C49.4199 9.79327 49.2999 9.57327 49.2999 9.30327C49.2999 9.03327 49.4199 8.81327 49.6699 8.64327C49.9199 8.47327 50.2099 8.38327 50.5499 8.38327C50.8899 8.38327 51.1899 8.47327 51.4399 8.64327C51.6899 8.81327 51.8199 9.03327 51.8199 9.30327C51.8199 9.57327 51.6899 9.79327 51.4399 9.97327C51.1899 10.1533 50.8899 10.2333 50.5499 10.2333ZM95.1699 15.3733C95.9399 15.3733 96.5299 15.1533 96.9499 14.7133C97.3699 14.2733 97.5899 13.6533 97.5999 12.8633C97.5999 12.0833 97.3999 11.4933 96.9999 11.1033C96.5999 10.7133 96.0099 10.5133 95.2399 10.5133H92.9699V15.3733H95.1699ZM90.7199 17.4033V8.49327H95.1299C96.0099 8.49327 96.8199 8.65327 97.5499 8.97327C98.2799 9.29327 98.8599 9.78327 99.2999 10.4333C99.7399 11.0933 99.9599 11.9033 99.9599 12.8633C99.9599 13.8233 99.7499 14.6633 99.3299 15.3433C98.9099 16.0233 98.3299 16.5333 97.5899 16.8833C96.8499 17.2333 96.0099 17.4033 95.0699 17.4033H90.7199ZM89.2799 17.4033H80.8799V8.49327H83.2399V15.3733H89.2699V17.3933L89.2799 17.4033ZM73.9999 15.5133C75.0499 15.5133 75.8299 15.2933 76.3199 14.8633C76.8099 14.4233 77.0599 13.7833 77.0599 12.9233C77.0599 12.0633 76.8099 11.4533 76.3199 11.0233C75.8299 10.5933 75.0499 10.3833 73.9999 10.3833C71.9299 10.3833 70.8999 11.2333 70.8999 12.9233C70.8999 14.6133 71.9299 15.5133 73.9999 15.5133ZM73.9999 17.5333C72.9099 17.5333 71.9499 17.3433 71.1199 16.9633C70.2899 16.5833 69.6499 16.0433 69.1999 15.3533C68.7499 14.6533 68.5299 13.8433 68.5299 12.9133C68.5299 11.9833 68.7599 11.1833 69.1999 10.4933C69.6499 9.80327 70.2899 9.27327 71.1099 8.90327C71.9299 8.53327 72.8899 8.35327 73.9899 8.35327C75.0899 8.35327 76.0499 8.53327 76.8699 8.90327C77.6899 9.27327 78.3199 9.80327 78.7699 10.4933C79.2199 11.1833 79.4399 11.9933 79.4399 12.9133C79.4399 13.8333 79.2099 14.6533 78.7599 15.3533C78.3099 16.0533 77.6699 16.5933 76.8499 16.9633C76.0299 17.3433 75.0799 17.5333 73.9999 17.5333ZM63.2199 17.5333C62.9099 17.5533 62.6899 17.5633 62.5599 17.5633C61.4599 17.5633 60.5099 17.3733 59.7099 17.0033C58.9099 16.6333 58.2899 16.0933 57.8599 15.3933C57.4299 14.6933 57.2099 13.8633 57.2099 12.9033C57.2099 11.4633 57.6799 10.3433 58.6299 9.53327C59.5799 8.72327 60.9599 8.32327 62.7799 8.32327C63.1099 8.32327 63.4599 8.33327 63.8299 8.36327C64.8399 8.44327 65.9199 8.68327 67.0799 9.06327V11.2133C65.9699 10.7233 64.8899 10.4533 63.8299 10.3933C63.4299 10.3733 63.1599 10.3633 62.9899 10.3633C61.7799 10.3633 60.9099 10.5733 60.3699 10.9833C59.8299 11.3933 59.5599 12.0333 59.5599 12.9033C59.5599 13.7233 59.8099 14.3633 60.2999 14.8233C60.7899 15.2833 61.5499 15.5233 62.5699 15.5233C62.7699 15.5233 62.9199 15.5233 63.0299 15.5133C63.7299 15.4633 64.2599 15.3333 64.6199 15.0933V14.0633H61.2199V12.1633H67.0799V16.1033C66.2699 16.9433 64.9799 17.4133 63.2099 17.5333H63.2199ZM38.6999 17.4033H36.4499L32.9299 8.49327H35.4099L37.5599 14.0133L39.2499 8.49327H41.5399L42.9799 14.0533L45.3699 8.49327H47.8499L44.0999 17.4033H41.8499L40.3699 11.7033L38.7099 17.4033H38.6999Z" fill="white"/>
<path d="M4.39001 12.8833L6.71001 17.0233L0.150006 13.0833C0.0900062 13.0433 0.0500062 13.0133 0.0300062 12.9833C0.0100062 12.9533 -0.0199938 12.8833 0.0100062 12.8833H0.150006H4.39001Z" fill="white"/>
<path fill-rule="evenodd" clip-rule="evenodd" d="M6.07001 16.3633L4.25001 13.1233H0.670006L6.07001 16.3633ZM4.39001 12.8833L6.71001 17.0233L0.150006 13.0833C0.0900062 13.0433 0.0500062 13.0133 0.0300062 12.9833C0.0100062 12.9533 -0.0199938 12.8833 0.0100062 12.8833H0.150006H4.39001Z" fill="#000001"/>
<path d="M4.39001 12.8833L6.73001 8.71326L0.150006 12.6833C0.0900062 12.7233 0.0500062 12.7533 0.0300062 12.7833C0.0100062 12.8133 -0.0199938 12.8733 0.0100062 12.8833H0.150006H4.39001Z" fill="white"/>
<path fill-rule="evenodd" clip-rule="evenodd" d="M6.08001 9.38326L4.25001 12.6433H0.670006L6.08001 9.38326ZM4.39001 12.8833L6.73001 8.71326L0.150006 12.6833C0.0900062 12.7233 0.0500062 12.7533 0.0300062 12.7833C0.0100062 12.8133 -0.0199938 12.8733 0.0100062 12.8833H0.150006H4.39001Z" fill="#000001"/>
<path d="M6.92006 8.87328L7.92006 10.7333L8.92006 12.5933C9.01006 12.7733 9.01006 12.9633 8.92006 13.1533L8.00006 14.8633L6.93006 16.8533C6.81006 17.0733 6.70006 17.0733 6.59006 16.8533L5.52006 15.0033L4.45006 13.1533C4.33006 12.9633 4.34006 12.7733 4.45006 12.5933L5.44006 10.8733L6.60006 8.87328C6.69006 8.67328 6.80006 8.62328 6.92006 8.87328Z" fill="white"/>
<path fill-rule="evenodd" clip-rule="evenodd" d="M7.71006 10.8533L6.75006 9.07328L5.64006 10.9933L4.65006 12.7133C4.62006 12.7733 4.60006 12.8233 4.59006 12.8833C4.59006 12.9333 4.61006 12.9833 4.64006 13.0333C4.64006 13.0333 4.64006 13.0333 4.64006 13.0433L5.71006 14.8933L6.74006 16.6833L7.78006 14.7533L8.69006 13.0533C8.72006 12.9933 8.73006 12.9433 8.73006 12.8933C8.73006 12.8933 8.73006 12.8933 8.73006 12.8833C8.73006 12.8233 8.71006 12.7633 8.69006 12.7133L7.69006 10.8633L7.71006 10.8533ZM6.92006 8.87328L7.92006 10.7333L8.92006 12.5933C9.01006 12.7733 9.01006 12.9633 8.92006 13.1533L8.00006 14.8633L6.93006 16.8533C6.81006 17.0733 6.70006 17.0733 6.59006 16.8533L5.52006 15.0033L4.45006 13.1533C4.33006 12.9633 4.34006 12.7733 4.45006 12.5933L5.44006 10.8733L6.60006 8.87328C6.69006 8.67328 6.80006 8.62328 6.92006 8.87328Z" fill="#000001"/>
<path d="M25.1201 12.8833L22.8 17.0233L29.3601 13.0833C29.4201 13.0433 29.46 13.0133 29.48 12.9833C29.5 12.9533 29.53 12.8833 29.5 12.8833H29.3601H25.1201Z" fill="white"/>
<path fill-rule="evenodd" clip-rule="evenodd" d="M29.49 12.9133H29.4501V12.9033H29.49V12.9133ZM23.4401 16.3632L25.26 13.1233H28.85L23.4501 16.3632H23.4401ZM25.1201 12.8833L23.0301 16.6033L22.8 17.0133L29.3601 13.0733C29.3601 13.0733 29.41 13.0333 29.43 13.0133L29.3 12.8633H25.1201V12.8833ZM29.5 12.8833H29.3701H29.31L29.4401 13.0333C29.4601 13.0133 29.48 13.0033 29.49 12.9833C29.5 12.9733 29.51 12.9433 29.5201 12.9233C29.5201 12.9033 29.5201 12.8933 29.5201 12.8833H29.5Z" fill="#000001"/>
<path d="M25.12 12.8833L22.78 8.71326L29.35 12.6833C29.41 12.7233 29.45 12.7533 29.47 12.7833C29.49 12.8133 29.52 12.8733 29.49 12.8833H29.35H25.11H25.12Z" fill="white"/>
<path fill-rule="evenodd" clip-rule="evenodd" d="M23.43 9.38326L25.26 12.6433H28.84L23.43 9.38326ZM25.12 12.8833L22.78 8.71326L29.35 12.6833C29.41 12.7233 29.45 12.7533 29.47 12.7833C29.49 12.8133 29.52 12.8733 29.49 12.8833H29.35H25.11H25.12Z" fill="#000001"/>
<path d="M22.59 8.87328L21.59 10.7333L20.59 12.5933C20.5 12.7733 20.5 12.9633 20.59 13.1533L21.51 14.8633L22.58 16.8533C22.7 17.0733 22.81 17.0733 22.92 16.8533L23.99 15.0033L25.06 13.1533C25.18 12.9633 25.17 12.7733 25.06 12.5933L24.07 10.8733L22.91 8.87328C22.82 8.67328 22.71 8.62328 22.59 8.87328Z" fill="white"/>
<path fill-rule="evenodd" clip-rule="evenodd" d="M22.73 8.94328H22.74C22.74 8.94328 22.72 8.94328 22.73 8.94328ZM22.76 16.7933C22.77 16.7933 22.78 16.7933 22.76 16.7933V16.7933ZM22.75 8.96328H22.74V8.95328H22.75V8.96328ZM25.06 12.5933L24.07 10.8733L23.87 10.9933L24.86 12.7133L25.06 12.5933ZM25.06 13.1633C25.18 12.9733 25.17 12.7833 25.06 12.6033L24.86 12.7233C24.9 12.7833 24.92 12.8333 24.92 12.8833C24.92 12.9333 24.91 12.9833 24.87 13.0333L25.07 13.1633H25.06ZM22.59 8.87328L21.59 10.7333L20.59 12.5933C20.5 12.7733 20.5 12.9633 20.59 13.1533L21.51 14.8633L22.58 16.8533C22.7 17.0733 22.81 17.0733 22.92 16.8533L22.76 16.7733L22.91 16.8633L23.98 15.0133L25.05 13.1633L24.85 13.0433L23.78 14.8933L22.75 16.6833L21.71 14.7533L20.79 13.0533C20.76 12.9933 20.74 12.9333 20.74 12.8733C20.74 12.8133 20.76 12.7633 20.78 12.7033L21.78 10.8533L22.74 9.07328L23.85 10.9933L24.06 10.8733L22.9 8.87328L22.76 8.95328C22.76 8.95328 22.75 8.95328 22.74 8.95328L22.9 8.87328C22.81 8.67328 22.7 8.62328 22.58 8.87328L22.71 8.93328C22.72 8.93328 22.72 8.93328 22.71 8.93328C22.71 8.93328 22.71 8.93328 22.7 8.93328L22.56 8.86328L22.59 8.87328Z" fill="#000001"/>
<path d="M29.71 12.9333H29.72" stroke="#000001" stroke-miterlimit="10"/>
<path d="M9.55988 3.90327L7.12988 7.98327L7.25988 0.333272C7.25988 0.263272 7.27988 0.213272 7.28988 0.173272C7.30988 0.143272 7.34988 0.0832722 7.35988 0.103272L7.42988 0.223272L9.54988 3.89327L9.55988 3.90327Z" fill="white"/>
<path fill-rule="evenodd" clip-rule="evenodd" d="M7.38988 7.09327L9.28988 3.90327L7.49988 0.803272L7.38988 7.10327V7.09327ZM9.55988 3.90327L7.12988 7.98327L7.25988 0.333272C7.25988 0.263272 7.27988 0.213272 7.28988 0.173272C7.30988 0.143272 7.34988 0.0832722 7.35988 0.103272L7.42988 0.223272L9.54988 3.89327L9.55988 3.90327Z" fill="#000001"/>
<path d="M9.55998 3.89325L14.34 3.83325L7.60997 0.133252C7.54997 0.103252 7.49997 0.083252 7.45997 0.083252C7.41997 0.083252 7.34997 0.083252 7.36997 0.113252L7.43997 0.233252L9.55998 3.90325V3.89325Z" fill="white"/>
<path fill-rule="evenodd" clip-rule="evenodd" d="M13.44 3.61325L9.69997 3.66325L7.89997 0.563252L13.44 3.61325ZM9.55998 3.89325L14.34 3.83325L7.60997 0.133252C7.54997 0.103252 7.49997 0.083252 7.45997 0.083252C7.41997 0.083252 7.34997 0.083252 7.36997 0.113252L7.43997 0.233252L9.55998 3.90325V3.89325Z" fill="#000001"/>
<path d="M14.2899 4.08325L13.1799 5.88325L12.0699 7.68325C11.9599 7.85325 11.7999 7.94325 11.5899 7.96325L9.64993 8.02325L7.38993 8.09325C7.12993 8.09325 7.08993 8.00325 7.21993 7.80325L8.28993 5.95325L9.35993 4.10325C9.45993 3.90325 9.62993 3.82325 9.84993 3.82325H11.8399H14.1499C14.3699 3.80325 14.4599 3.87325 14.2999 4.10325" fill="white"/>
<path fill-rule="evenodd" clip-rule="evenodd" d="M12.9799 5.76325L14.0399 4.04325H11.8199H9.84993C9.84993 4.04325 9.83993 4.04325 9.82993 4.04325C9.75993 4.04325 9.69993 4.05325 9.65993 4.07325C9.65993 4.07325 9.58993 4.13325 9.55993 4.19325C9.55993 4.19325 9.55993 4.19325 9.55993 4.20325L8.48993 6.05325L7.45993 7.84325L9.64993 7.77325L11.5899 7.71325C11.6499 7.71325 11.7099 7.69325 11.7599 7.66325C11.8099 7.63325 11.8499 7.59325 11.8899 7.54325L12.9999 5.75325L12.9799 5.76325ZM14.2899 4.08325L13.1799 5.88325L12.0699 7.68325C11.9599 7.85325 11.7999 7.94325 11.5899 7.96325L9.64993 8.02325L7.38993 8.09325C7.12993 8.09325 7.08993 8.00325 7.21993 7.80325L8.28993 5.95325L9.35993 4.10325C9.45993 3.90325 9.62993 3.82325 9.84993 3.82325H11.8399H14.1499C14.3699 3.80325 14.4599 3.87325 14.2999 4.10325L14.2899 4.08325Z" fill="#000001"/>
<path d="M19.9199 21.8533L15.1799 21.9133L21.8699 25.6233C21.9299 25.6533 21.9799 25.6733 22.0199 25.6733C22.0599 25.6733 22.1199 25.6733 22.1099 25.6433L22.0399 25.5233L19.9199 21.8533Z" fill="white"/>
<path fill-rule="evenodd" clip-rule="evenodd" d="M16.0699 22.1333L19.7899 22.0833L21.5799 25.1933L16.0699 22.1333ZM19.9199 21.8533L15.1799 21.9133L21.8699 25.6233C21.9299 25.6533 21.9799 25.6733 22.0199 25.6733C22.0599 25.6733 22.1199 25.6733 22.1099 25.6433L22.0399 25.5233L19.9199 21.8533Z" fill="#000001"/>
<path d="M19.9299 21.8533L22.3699 17.7433L22.2199 25.4233C22.2199 25.4933 22.1999 25.5433 22.1899 25.5833C22.1799 25.6133 22.1299 25.6733 22.1199 25.6533L22.0499 25.5333L19.9399 21.8633L19.9299 21.8533Z" fill="white"/>
<path fill-rule="evenodd" clip-rule="evenodd" d="M22.1099 18.6333L20.1999 21.8533L21.9799 24.9533L22.1099 18.6333ZM19.9299 21.8533L22.3699 17.7433L22.2199 25.4233C22.2199 25.4933 22.1999 25.5433 22.1899 25.5833C22.1799 25.6133 22.1299 25.6733 22.1199 25.6533L22.0499 25.5333L19.9399 21.8633L19.9299 21.8533Z" fill="#000001"/>
<path d="M22.1299 17.6633L20.0199 17.7233L17.9099 17.7833C17.7099 17.7933 17.5499 17.8933 17.4299 18.0633L16.4099 19.7133L15.2199 21.6333C15.0899 21.8533 15.1499 21.9433 15.3899 21.9333H17.5299H19.6699C19.8899 21.9433 20.0499 21.8433 20.1599 21.6533L21.1499 19.9333L22.3099 17.9333C22.4299 17.7533 22.4299 17.6433 22.1499 17.6633" fill="white"/>
<path fill-rule="evenodd" clip-rule="evenodd" d="M20.0199 17.9633L22.0399 17.9033L20.9299 19.8233L19.9499 21.5333C19.9499 21.5333 19.9499 21.5433 19.9399 21.5533C19.9099 21.6133 19.8699 21.6533 19.8299 21.6833C19.7899 21.7033 19.7399 21.7133 19.6799 21.7133C19.6799 21.7133 19.6799 21.7133 19.6699 21.7133H17.5299H15.4599L16.6099 19.8533L17.6299 18.2033C17.6299 18.2033 17.6999 18.1133 17.7499 18.0933C17.7999 18.0633 17.8599 18.0533 17.9199 18.0433L20.0199 17.9833V17.9633ZM22.1299 17.6633L20.0199 17.7233L17.9099 17.7833C17.7099 17.7933 17.5499 17.8933 17.4299 18.0633L16.4099 19.7133L15.2199 21.6333C15.0899 21.8533 15.1499 21.9433 15.3899 21.9333H17.5299H19.6699C19.8899 21.9433 20.0499 21.8433 20.1599 21.6533L21.1499 19.9333L22.3099 17.9333C22.4299 17.7533 22.4299 17.6433 22.1499 17.6633H22.1299Z" fill="#000001"/>
<path d="M19.9199 3.88326L15.1799 3.82326L21.8699 0.113263C21.9299 0.0832629 21.9799 0.0632629 22.0199 0.0632629C22.0599 0.0632629 22.1199 0.0632629 22.1099 0.0932629L22.0399 0.213263L19.9199 3.88326Z" fill="white"/>
<path fill-rule="evenodd" clip-rule="evenodd" d="M16.0699 3.60326L19.7899 3.65326L21.5799 0.543263L16.0699 3.60326ZM19.9199 3.88326L15.1799 3.82326L21.8699 0.113263C21.9299 0.0832629 21.9799 0.0632629 22.0199 0.0632629C22.0599 0.0632629 22.1199 0.0632629 22.1099 0.0932629L22.0399 0.213263L19.9199 3.88326Z" fill="#000001"/>
<path d="M19.9299 3.88325L22.3699 7.99325L22.2199 0.313253C22.2199 0.243253 22.1999 0.193253 22.1899 0.153253C22.1799 0.123253 22.1299 0.0632527 22.1199 0.0832527L22.0499 0.203253L19.9399 3.87325L19.9299 3.88325Z" fill="white"/>
<path fill-rule="evenodd" clip-rule="evenodd" d="M22.04 0.253262V0.263262C22.04 0.263262 22.04 0.263262 22.03 0.263262V0.243262L22.04 0.253262ZM22.05 0.253262L22.07 0.223262L22.06 0.253262H22.05ZM22.11 7.10326L20.2 3.88326L21.98 0.783262L22.11 7.10326ZM22.12 0.0932617L22.06 0.203262L22.1 0.163262L22.13 0.113262L22.11 0.163262L22.15 0.133262L22.11 0.173262L22.08 0.223262L22.18 0.183262L22.08 0.233262V0.243262H22.09L22.12 0.193262L22.07 0.243262V0.263262L19.97 3.92326L22.16 7.62326L22.41 8.03326L22.26 0.353262C22.26 0.353262 22.26 0.283262 22.25 0.263262C22.25 0.233262 22.24 0.213262 22.23 0.203262C22.22 0.173262 22.18 0.123262 22.16 0.133262L22.12 0.0932617Z" fill="#000001"/>
<path d="M22.1299 8.07327L20.0199 8.01327L17.9099 7.95327C17.7099 7.94327 17.5499 7.84327 17.4299 7.67327L16.4099 6.02327L15.2199 4.10327C15.0899 3.88327 15.1499 3.79327 15.3899 3.80327H17.5299H19.6699C19.8899 3.79327 20.0499 3.89327 20.1599 4.08327L21.1499 5.80327L22.3099 7.80327C22.4299 7.98327 22.4299 8.10327 22.1499 8.07327" fill="white"/>
<path fill-rule="evenodd" clip-rule="evenodd" d="M22.1399 7.91327C22.1399 7.91327 22.1399 7.93327 22.1399 7.92327V7.91327ZM15.3499 3.97327C15.3499 3.95327 15.3499 3.96327 15.3499 3.97327V3.97327ZM20.0199 7.77327L22.0399 7.83327L20.9299 5.91327L19.9399 4.19327C19.9099 4.13327 19.8699 4.08327 19.8299 4.06327C19.8299 4.06327 19.7399 4.03327 19.6799 4.03327H17.5299H15.4599L16.6099 5.89327L17.6299 7.54327C17.6699 7.59327 17.7099 7.63327 17.7599 7.66327C17.8099 7.69327 17.8699 7.70327 17.9299 7.71327L20.0299 7.77327H20.0199ZM22.1299 8.07327L20.0199 8.01327L17.9099 7.95327C17.7099 7.94327 17.5499 7.84327 17.4299 7.67327L16.4099 6.02327L15.2199 4.10327C15.0899 3.88327 15.1499 3.79327 15.3899 3.80327H17.5299H19.6699C19.8899 3.79327 20.0499 3.89327 20.1599 4.08327L21.1499 5.80327L22.3099 7.80327C22.4299 7.98327 22.4299 8.10327 22.1499 8.07327H22.1299Z" fill="#000001"/>
<path d="M9.55988 21.8333L7.12988 17.7533L7.25988 25.4033C7.25988 25.4733 7.27988 25.5233 7.28988 25.5633C7.30988 25.5933 7.34988 25.6533 7.35988 25.6333L7.42988 25.5133L9.54988 21.8433L9.55988 21.8333Z" fill="white"/>
<path fill-rule="evenodd" clip-rule="evenodd" d="M7.43988 25.4633L9.28988 21.8333L7.43988 25.4633ZM7.38988 18.6433L9.28988 21.8333L7.49988 24.9333L7.38988 18.6333V18.6433ZM7.36988 25.6333L7.42988 25.5233L7.38988 25.5633L7.35988 25.6233L7.38988 25.5733L7.41988 25.5133L7.38988 25.5633L7.43988 25.5133L9.55988 21.8333L7.12988 17.7533V18.2333L7.37988 18.6433L7.13988 18.2333L7.25988 25.4033C7.25988 25.4733 7.27988 25.5233 7.28988 25.5633C7.29988 25.5933 7.33988 25.6433 7.35988 25.6333H7.36988Z" fill="#000001"/>
<path d="M9.55998 21.8433L14.34 21.9033L7.61998 25.6133C7.55998 25.6433 7.50998 25.6633 7.46998 25.6633C7.42998 25.6633 7.35998 25.6633 7.37998 25.6333L7.44998 25.5133L9.56998 21.8433H9.55998Z" fill="white"/>
<path fill-rule="evenodd" clip-rule="evenodd" d="M13.44 22.1233L9.69998 22.0733L7.90998 25.1733L13.45 22.1233H13.44ZM9.55998 21.8433L14.34 21.9033L7.61998 25.6133C7.55998 25.6433 7.50998 25.6633 7.46998 25.6633C7.42998 25.6633 7.35998 25.6633 7.37998 25.6333L7.44998 25.5133L9.56998 21.8433H9.55998Z" fill="#000001"/>
<path d="M14.2899 21.6532L13.1799 19.8533L12.0699 18.0532C11.9599 17.8832 11.7999 17.7932 11.5899 17.7732L9.64993 17.7132L7.38993 17.6432C7.12993 17.6432 7.08993 17.7333 7.21993 17.9333L8.28993 19.7832L9.35993 21.6332C9.45993 21.8332 9.62993 21.9132 9.84993 21.9132H11.8399H14.1499C14.3699 21.9332 14.4599 21.8632 14.2999 21.6332" fill="white"/>
<path fill-rule="evenodd" clip-rule="evenodd" d="M14.1399 21.7533H14.1599H14.1499H14.1399ZM9.34993 21.6532C9.44993 21.8532 9.61993 21.9333 9.83993 21.9333V21.6932C9.76993 21.6932 9.70993 21.6832 9.66993 21.6632C9.62993 21.6432 9.58993 21.6032 9.56993 21.5432L9.35993 21.6532H9.34993ZM14.2899 21.6532L13.1799 19.8533L12.0699 18.0532C11.9599 17.8832 11.7999 17.7932 11.5899 17.7732L9.64993 17.7132L7.38993 17.6432C7.12993 17.6432 7.08993 17.7333 7.21993 17.9333L7.36993 17.8333L7.21993 17.9233L8.28993 19.7732L9.35993 21.6232L9.55993 21.5033L8.48993 19.6532L7.45993 17.8632L9.64993 17.9333L11.5899 17.9932C11.6599 17.9932 11.7099 18.0132 11.7599 18.0432C11.8099 18.0732 11.8499 18.1132 11.8899 18.1632L12.9999 19.9532L14.0599 21.6733H9.85993V21.9132H11.8499H14.1599V21.7533C14.1599 21.7533 14.1599 21.7533 14.1699 21.7432V21.9233C14.3699 21.9433 14.4699 21.8732 14.3099 21.6432L14.1899 21.7232C14.1899 21.7232 14.1899 21.7232 14.1899 21.7132L14.3199 21.6332L14.2899 21.6532Z" fill="#000001"/>
<path d="M101.95 9.05326C101.78 8.88326 101.54 8.77326 101.27 8.77326C101 8.77326 100.76 8.88326 100.59 9.05326C100.42 9.22326 100.31 9.46326 100.31 9.73326C100.31 10.0033 100.42 10.2433 100.59 10.4133C100.76 10.5833 101 10.6933 101.27 10.6933C101.54 10.6933 101.78 10.5833 101.95 10.4133C102.12 10.2433 102.23 10.0033 102.23 9.73326C102.23 9.46326 102.12 9.22326 101.95 9.05326ZM101.27 8.59326C101.59 8.59326 101.87 8.72326 102.08 8.93326C102.29 9.14326 102.42 9.42326 102.42 9.74326C102.42 10.0633 102.29 10.3433 102.08 10.5533C101.87 10.7633 101.59 10.8933 101.27 10.8933C100.95 10.8933 100.67 10.7633 100.46 10.5533C100.25 10.3433 100.12 10.0633 100.12 9.74326C100.12 9.42326 100.25 9.14326 100.46 8.93326C100.67 8.72326 100.95 8.59326 101.27 8.59326Z" fill="white"/>
<path d="M101.07 9.64326H101.23C101.34 9.64326 101.4 9.64326 101.43 9.63326C101.46 9.63326 101.48 9.61326 101.49 9.58326C101.5 9.56326 101.51 9.53326 101.51 9.50326C101.51 9.46326 101.51 9.43326 101.48 9.41326C101.46 9.39326 101.43 9.37326 101.4 9.37326C101.38 9.37326 101.33 9.37326 101.24 9.37326H101.07V9.65326V9.64326ZM100.85 10.2733V9.18326H101.31C101.43 9.18326 101.51 9.19326 101.56 9.21326C101.61 9.23326 101.65 9.26326 101.69 9.31326C101.72 9.36326 101.74 9.42326 101.74 9.48326C101.74 9.56326 101.72 9.63326 101.67 9.68326C101.62 9.73326 101.55 9.77326 101.46 9.78326C101.51 9.81326 101.55 9.84326 101.58 9.87326C101.61 9.90326 101.65 9.96326 101.7 10.0533L101.83 10.2633H101.57L101.41 10.0233C101.35 9.94326 101.32 9.88326 101.29 9.86326C101.27 9.84326 101.25 9.82326 101.22 9.81326C101.2 9.81326 101.16 9.80326 101.11 9.80326H101.07V10.2533H100.85V10.2733Z" fill="white"/>
<path fill-rule="evenodd" clip-rule="evenodd" d="M6.07001 16.3633L4.25001 13.1233H0.670006L6.07001 16.3633ZM4.39001 12.8833L6.71001 17.0233L0.150006 13.0833C0.0900062 13.0433 0.0500062 13.0133 0.0300062 12.9833C0.0100062 12.9533 -0.0199938 12.8833 0.0100062 12.8833H0.150006H4.39001Z" fill="#000001"/>
<path fill-rule="evenodd" clip-rule="evenodd" d="M6.08001 9.38326L4.25001 12.6433H0.670006L6.08001 9.38326ZM4.39001 12.8833L6.73001 8.71326L0.150006 12.6833C0.0900062 12.7233 0.0500062 12.7533 0.0300062 12.7833C0.0100062 12.8133 -0.0199938 12.8833 0.0100062 12.8833H0.150006H4.39001Z" fill="#000001"/>
<path fill-rule="evenodd" clip-rule="evenodd" d="M7.71006 10.8533L6.75006 9.07328L5.64006 10.9933L4.66006 12.6933C4.66006 12.6933 4.66006 12.7033 4.65006 12.7133C4.61006 12.7733 4.60006 12.8233 4.59006 12.8733C4.59006 12.9233 4.61006 12.9733 4.64006 13.0233C4.64006 13.0233 4.64006 13.0233 4.64006 13.0333L5.71006 14.8833L6.74006 16.6733L7.78006 14.7433L8.69006 13.0433C8.72006 12.9833 8.73006 12.9233 8.73006 12.8633C8.73006 12.8033 8.72006 12.7533 8.69006 12.6933L7.69006 10.8433L7.71006 10.8533ZM6.92006 8.87328L7.92006 10.7333L8.92006 12.5933C9.01006 12.7733 9.01006 12.9633 8.92006 13.1533L8.00006 14.8633L6.93006 16.8533C6.81006 17.0733 6.70006 17.0733 6.59006 16.8533L5.52006 15.0033L4.45006 13.1533C4.33006 12.9633 4.34006 12.7733 4.45006 12.5933L5.44006 10.8733L6.60006 8.87328C6.69006 8.67328 6.80006 8.62328 6.92006 8.87328Z" fill="#000001"/>
<path fill-rule="evenodd" clip-rule="evenodd" d="M29.4901 12.9133H29.4401V12.8933L29.4901 12.9133ZM23.4401 16.3633L25.2601 13.1233H28.8501L23.4501 16.3633H23.4401ZM29.5001 12.8833H29.3701H25.1301L23.0401 16.6033L22.8101 17.0233L29.3701 13.0833C29.4301 13.0433 29.4701 13.0133 29.4901 12.9833C29.5101 12.9533 29.5301 12.8933 29.5201 12.8933L29.5001 12.8833Z" fill="#000001"/>
<path fill-rule="evenodd" clip-rule="evenodd" d="M23.43 9.38326L25.26 12.6433H28.84L23.43 9.38326ZM25.12 12.8833L22.78 8.71326L29.35 12.6833C29.41 12.7233 29.45 12.7533 29.47 12.7833C29.49 12.8133 29.52 12.8833 29.49 12.8833H29.35H25.11H25.12Z" fill="#000001"/>
<path fill-rule="evenodd" clip-rule="evenodd" d="M22.73 8.94328H22.74C22.74 8.94328 22.72 8.94328 22.73 8.94328ZM22.76 16.7933C22.77 16.7933 22.78 16.7933 22.76 16.7933V16.7933ZM22.75 8.96328H22.74V8.95328H22.75V8.96328ZM25.06 12.5933L24.07 10.8733L23.87 10.9933L24.86 12.7133L25.06 12.5933ZM25.06 13.1633C25.18 12.9733 25.17 12.7833 25.06 12.6033L24.86 12.7233C24.9 12.7833 24.91 12.8333 24.92 12.8833C24.92 12.9333 24.91 12.9833 24.87 13.0333L25.07 13.1633H25.06ZM22.59 8.87328L21.59 10.7333L20.59 12.5933C20.5 12.7733 20.5 12.9633 20.59 13.1533L21.51 14.8633L22.58 16.8533C22.7 17.0733 22.81 17.0733 22.92 16.8533L22.76 16.7733L22.91 16.8633L23.98 15.0133L25.05 13.1633L24.85 13.0433L23.78 14.8933L22.75 16.6833L21.71 14.7533L20.79 13.0533C20.76 12.9933 20.74 12.9333 20.74 12.8733C20.74 12.8133 20.76 12.7633 20.78 12.7033L21.78 10.8533L22.74 9.07328L23.85 10.9933L24.05 10.8733L22.89 8.87328L22.75 8.95328C22.75 8.95328 22.74 8.95328 22.73 8.95328L22.89 8.87328C22.8 8.67328 22.69 8.62328 22.57 8.87328L22.7 8.93328C22.71 8.93328 22.71 8.93328 22.7 8.93328C22.7 8.93328 22.7 8.93328 22.69 8.93328L22.56 8.86328L22.59 8.87328Z" fill="#000001"/>
<path d="M29.71 12.9333H29.72" stroke="#000001" stroke-miterlimit="10"/>
<path fill-rule="evenodd" clip-rule="evenodd" d="M7.38988 7.09327L9.28988 3.90327L7.49988 0.803272L7.38988 7.10327V7.09327ZM9.55988 3.90327L7.12988 7.98327L7.25988 0.333272C7.25988 0.263272 7.27988 0.213272 7.28988 0.173272C7.30988 0.143272 7.34988 0.0832722 7.35988 0.103272L7.42988 0.223272L9.54988 3.89327L9.55988 3.90327Z" fill="#000001"/>
<path fill-rule="evenodd" clip-rule="evenodd" d="M13.44 3.61325L9.69997 3.66325L7.89997 0.563252L13.44 3.61325ZM9.55998 3.89325L14.34 3.83325L7.60997 0.133252C7.54997 0.103252 7.49997 0.083252 7.45997 0.083252C7.41997 0.083252 7.34997 0.083252 7.36997 0.113252L7.43997 0.233252L9.55998 3.90325V3.89325Z" fill="#000001"/>
<path fill-rule="evenodd" clip-rule="evenodd" d="M12.9799 5.76325L14.0399 4.04325H11.8199H9.84993C9.84993 4.04325 9.83993 4.04325 9.82993 4.04325C9.75993 4.04325 9.69993 4.05325 9.65993 4.07325C9.61993 4.09325 9.57993 4.13325 9.55993 4.19325C9.55993 4.19325 9.55993 4.19325 9.55993 4.20325L8.48993 6.05325L7.45993 7.84325L9.64993 7.77325L11.5799 7.71325C11.6499 7.71325 11.7099 7.69325 11.7599 7.66325C11.7599 7.66325 11.8499 7.59325 11.8899 7.54325L12.9999 5.75325L12.9799 5.76325ZM14.2899 4.08325L13.1799 5.88325L12.0699 7.68325C11.9599 7.85325 11.7999 7.94325 11.5899 7.96325L9.64993 8.02325L7.38993 8.09325C7.12993 8.09325 7.08993 8.00325 7.21993 7.80325L8.28993 5.95325L9.35993 4.10325C9.45993 3.90325 9.62993 3.82325 9.84993 3.82325H11.8399H14.1499C14.3699 3.80325 14.4599 3.87325 14.2999 4.10325L14.2899 4.08325Z" fill="#000001"/>
<path fill-rule="evenodd" clip-rule="evenodd" d="M16.0699 22.1333L19.7899 22.0833L21.5799 25.1833L16.0699 22.1233V22.1333ZM19.9199 21.8533L15.1799 21.9133L21.8699 25.6233C21.9299 25.6533 21.9799 25.6733 22.0199 25.6733C22.0599 25.6733 22.1299 25.6733 22.1099 25.6433L22.0399 25.5233L19.9199 21.8533Z" fill="#000001"/>
<path fill-rule="evenodd" clip-rule="evenodd" d="M22.1099 18.6433L20.1999 21.8633L21.9799 24.9633L22.1099 18.6433ZM19.9299 21.8533L22.3699 17.7433L22.2199 25.4233C22.2199 25.4933 22.1999 25.5433 22.1899 25.5833C22.1699 25.6133 22.1299 25.6733 22.1199 25.6533L22.0499 25.5333L19.9399 21.8633L19.9299 21.8533Z" fill="#000001"/>
<path fill-rule="evenodd" clip-rule="evenodd" d="M20.0199 17.9633L22.0399 17.9033L20.9299 19.8233L19.9499 21.5333C19.9499 21.5333 19.9499 21.5433 19.9399 21.5533C19.9099 21.6133 19.8699 21.6533 19.8199 21.6833C19.8199 21.6833 19.7299 21.7133 19.6699 21.7133C19.6699 21.7133 19.6699 21.7133 19.6599 21.7133H17.5199H15.4499L16.5999 19.8533L17.6199 18.2033C17.6199 18.2033 17.6899 18.1133 17.7399 18.0933C17.7899 18.0633 17.8499 18.0533 17.9099 18.0433L20.0099 17.9833L20.0199 17.9633ZM22.1299 17.6633L20.0199 17.7233L17.9099 17.7833C17.7099 17.7933 17.5499 17.8933 17.4299 18.0633L16.4099 19.7133L15.2199 21.6333C15.0899 21.8533 15.1499 21.9433 15.3899 21.9333H17.5299H19.6699C19.8899 21.9433 20.0499 21.8433 20.1599 21.6533L21.1499 19.9333L22.3099 17.9333C22.4299 17.7533 22.4299 17.6433 22.1499 17.6633H22.1299Z" fill="#000001"/>
<path fill-rule="evenodd" clip-rule="evenodd" d="M16.0699 3.60326L19.7899 3.65326L21.5799 0.553263L16.0699 3.61326V3.60326ZM19.9199 3.88326L15.1799 3.82326L21.8699 0.113263C21.9299 0.0832629 21.9799 0.0632629 22.0199 0.0632629C22.0599 0.0632629 22.1299 0.0632629 22.1099 0.0932629L22.0399 0.213263L19.9199 3.88326Z" fill="#000001"/>
<path fill-rule="evenodd" clip-rule="evenodd" d="M22.11 7.10326L20.2 3.88326L21.9799 0.783262L22.11 7.10326ZM22.12 0.0932617L22.0599 0.203262L22.1 0.163262L22.0499 0.203262V0.223262L19.95 3.89326L22.1399 7.59326L22.3899 8.00326L22.24 0.323262C22.24 0.253262 22.2199 0.203262 22.2099 0.163262C22.2099 0.143262 22.19 0.123262 22.17 0.113262C22.16 0.103262 22.1399 0.0932617 22.1399 0.0932617H22.12Z" fill="#000001"/>
<path fill-rule="evenodd" clip-rule="evenodd" d="M22.1399 7.91327C22.1399 7.91327 22.1399 7.93327 22.1399 7.92327V7.91327ZM15.3499 3.97327C15.3499 3.95327 15.3499 3.96327 15.3499 3.97327V3.97327ZM20.0199 7.77327L22.0399 7.83327L20.9299 5.91327L19.9399 4.19327C19.9099 4.13327 19.8699 4.08327 19.8199 4.06327C19.8199 4.06327 19.7299 4.03327 19.6699 4.03327H17.5099H15.4399L16.5899 5.89327L17.6099 7.54327C17.6499 7.59327 17.6899 7.63327 17.7399 7.66327C17.7899 7.69327 17.8499 7.70327 17.9099 7.71327L20.0099 7.77327H20.0199ZM22.1299 8.07327L20.0199 8.01327L17.9099 7.95327C17.7099 7.94327 17.5499 7.84327 17.4299 7.67327L16.4099 6.02327L15.2199 4.10327C15.0899 3.88327 15.1499 3.79327 15.3899 3.80327H17.5299H19.6699C19.8899 3.79327 20.0499 3.89327 20.1599 4.08327L21.1499 5.80327L22.3099 7.80327C22.4299 7.98327 22.4299 8.09327 22.1499 8.07327H22.1299Z" fill="#000001"/>
<path fill-rule="evenodd" clip-rule="evenodd" d="M7.43988 25.4633L9.28988 21.8333L7.43988 25.4633ZM7.38988 18.6433L9.28988 21.8333L7.49988 24.9333L7.38988 18.6333V18.6433ZM7.36988 25.6333L7.42988 25.5233L7.38988 25.5633L7.35988 25.6233L7.38988 25.5733L7.41988 25.5133L7.38988 25.5633L7.43988 25.5133L9.55988 21.8333L7.12988 17.7533V18.2333L7.37988 18.6433L7.13988 18.2333L7.25988 25.4033C7.25988 25.4733 7.27988 25.5233 7.28988 25.5633C7.29988 25.5933 7.33988 25.6433 7.35988 25.6333H7.36988Z" fill="#000001"/>
<path fill-rule="evenodd" clip-rule="evenodd" d="M13.44 22.1233L9.69998 22.0733L7.90998 25.1733L13.45 22.1233H13.44ZM9.55998 21.8433L14.34 21.9033L7.61998 25.6133C7.55998 25.6433 7.50998 25.6633 7.46998 25.6633C7.42998 25.6633 7.35998 25.6633 7.37998 25.6333L7.44998 25.5133L9.56998 21.8433H9.55998Z" fill="#000001"/>
<path fill-rule="evenodd" clip-rule="evenodd" d="M14.1399 21.7533H14.1599H14.1499H14.1399ZM9.34993 21.6532C9.44993 21.8532 9.61993 21.9333 9.83993 21.9333V21.6932C9.76993 21.6932 9.70993 21.6832 9.66993 21.6632C9.62993 21.6432 9.58993 21.6032 9.56993 21.5432L9.35993 21.6532H9.34993ZM14.2899 21.6532L13.1799 19.8533L12.0699 18.0532C11.9599 17.8832 11.7999 17.7932 11.5899 17.7732L9.64993 17.7132L7.38993 17.6432C7.12993 17.6432 7.08993 17.7333 7.21993 17.9333L7.36993 17.8333L7.21993 17.9233L8.28993 19.7732L9.35993 21.6232L9.55993 21.5033L8.48993 19.6532L7.45993 17.8632L9.64993 17.9333L11.5899 17.9932C11.6599 17.9932 11.7099 18.0132 11.7599 18.0432C11.8099 18.0732 11.8499 18.1132 11.8899 18.1632L12.9999 19.9532L14.0599 21.6733H9.85993V21.9132H11.8499H14.1599V21.7533C14.1599 21.7533 14.1599 21.7533 14.1699 21.7432V21.9233C14.3699 21.9433 14.4699 21.8732 14.3099 21.6432L14.1899 21.7232C14.1899 21.7232 14.1899 21.7232 14.1899 21.7132L14.3199 21.6332L14.2899 21.6532Z" fill="#000001"/>
</g>
<defs>
<clipPath id="clip0_5517_19727">
<rect width="102.42" height="25.61" fill="white" transform="translate(0 0.0632629)"/>
</clipPath>
</defs>
</svg>
