<svg width="116" height="30" viewBox="0 0 116 30" fill="none" xmlns="http://www.w3.org/2000/svg">
<g clip-path="url(#clip0_5515_6562)">
<path d="M62.9591 19.9388H60.2861V12.2294H62.9591V19.9388ZM61.6169 11.8738C61.2268 11.8738 60.8941 11.7705 60.6188 11.5755C60.3435 11.3805 60.2058 11.1281 60.2058 10.8183C60.2058 10.5086 60.3435 10.2676 60.6188 10.0726C60.8941 9.87759 61.2268 9.78581 61.6169 9.78581C62.0069 9.78581 62.3396 9.87759 62.615 10.0726C62.9018 10.2676 63.0394 10.5086 63.0394 10.8183C63.0394 11.1281 62.9018 11.369 62.615 11.5755C62.3282 11.7705 61.9955 11.8738 61.6169 11.8738ZM58.4964 19.9388H55.8234V12.2294H58.4964V19.9388ZM57.1542 11.8738C56.7641 11.8738 56.4429 11.7705 56.1561 11.5755C55.8807 11.3805 55.7431 11.1281 55.7431 10.8183C55.7431 10.5086 55.8807 10.2676 56.1561 10.0726C56.4314 9.87759 56.7641 9.78581 57.1542 9.78581C57.5442 9.78581 57.8769 9.87759 58.1523 10.0726C58.4391 10.2676 58.5767 10.5086 58.5767 10.8183C58.5767 11.1281 58.4391 11.369 58.1523 11.5755C57.8654 11.7705 57.5327 11.8738 57.1542 11.8738ZM107.414 17.6558C108.275 17.6558 108.94 17.4034 109.422 16.9101C109.904 16.4168 110.145 15.717 110.156 14.8221C110.156 13.9388 109.927 13.2734 109.479 12.8374C109.032 12.4015 108.366 12.172 107.495 12.172H104.936V17.6443H107.414V17.6558ZM102.401 19.9388V9.90054H107.368C108.366 9.90054 109.273 10.0841 110.087 10.4397C110.913 10.7954 111.567 11.346 112.06 12.0917C112.554 12.826 112.806 13.7437 112.806 14.8336C112.806 15.9235 112.565 16.8527 112.095 17.6214C111.613 18.39 110.971 18.9636 110.133 19.3537C109.307 19.7437 108.355 19.9388 107.288 19.9388H102.389H102.401ZM100.772 19.9388H91.3186V9.90054H93.9802V17.6558H100.772V19.9388ZM83.5748 17.8164C84.7565 17.8164 85.6283 17.5755 86.1905 17.0822C86.7526 16.5889 87.028 15.8661 87.028 14.9024C87.028 13.9388 86.7526 13.2504 86.1905 12.7686C85.6283 12.2868 84.7565 12.0459 83.5748 12.0459C81.2459 12.0459 80.0758 12.9981 80.0758 14.9024C80.0758 16.8068 81.2459 17.8164 83.5748 17.8164ZM83.5748 20.0879C82.3473 20.0879 81.2689 19.8699 80.3396 19.4455C79.4104 19.021 78.6876 18.413 78.1828 17.6328C77.6781 16.8527 77.4257 15.935 77.4257 14.891C77.4257 13.847 77.6781 12.9407 78.1828 12.1606C78.6876 11.3805 79.4104 10.7954 80.3396 10.3709C81.2689 9.9579 82.3473 9.7514 83.5863 9.7514C84.8253 9.7514 85.9037 9.9579 86.8215 10.3709C87.7393 10.7839 88.4505 11.3805 88.9553 12.1606C89.4601 12.9407 89.7125 13.847 89.7125 14.891C89.7125 15.935 89.4601 16.8527 88.9438 17.6328C88.4276 18.413 87.7163 19.021 86.7985 19.4455C85.8807 19.8699 84.8023 20.0879 83.5863 20.0879H83.5748ZM71.4371 20.0879C71.093 20.1109 70.8406 20.1223 70.6914 20.1223C69.4524 20.1223 68.3855 19.9158 67.4792 19.4914C66.5729 19.0669 65.8846 18.4703 65.3913 17.6787C64.9094 16.8986 64.657 15.9579 64.657 14.8795C64.657 13.2619 65.1962 11.9885 66.2631 11.0822C67.3301 10.1759 68.8903 9.71698 70.9324 9.71698C71.311 9.71698 71.701 9.72845 72.114 9.76287C73.2498 9.85465 74.4658 10.1185 75.7737 10.5545V12.9751C74.5232 12.4244 73.3071 12.1147 72.114 12.0459C71.6666 12.0229 71.3568 12.0114 71.1733 12.0114C69.8196 12.0114 68.8329 12.2409 68.2249 12.7112C67.6169 13.1816 67.3071 13.8929 67.3071 14.868C67.3071 15.7858 67.5825 16.5086 68.1331 17.0363C68.6838 17.5525 69.5442 17.8164 70.6914 17.8164C70.9094 17.8164 71.0815 17.8164 71.2077 17.8049C71.9993 17.759 72.5958 17.5984 72.9974 17.3346V16.1759H69.1656V14.0306H75.7622V18.4703C74.8559 19.4111 73.3989 19.9502 71.4027 20.0764L71.4371 20.0879ZM43.8119 19.9388H41.2765L37.3071 9.90054H40.1064L42.527 16.1185L44.4314 9.90054H47.0127L48.6417 16.1644L51.3377 9.90054H54.137L49.9152 19.9388H47.3798L45.7048 13.5258L43.8349 19.9388H43.8119Z" fill="#4D008B"/>
<mask id="mask0_5515_6562" style="mask-type:luminance" maskUnits="userSpaceOnUse" x="0" y="14" width="8" height="6">
<path d="M5.18543 14.8451L7.80111 19.5028L0.412965 15.0745C0.344131 15.0286 0.298242 14.9942 0.275298 14.9598C0.252353 14.9254 0.217936 14.8565 0.252353 14.8565H0.412965H5.18543V14.8451Z" fill="white"/>
</mask>
<g mask="url(#mask0_5515_6562)">
<path d="M7.78947 14.845H0.217773V19.5028H7.78947V14.845Z" fill="url(#paint0_linear_5515_6562)"/>
</g>
<mask id="mask1_5515_6562" style="mask-type:luminance" maskUnits="userSpaceOnUse" x="0" y="10" width="8" height="5">
<path d="M5.17427 14.8452L7.80143 10.153L0.41328 14.6272C0.344446 14.6731 0.298557 14.7075 0.275613 14.742C0.252668 14.7764 0.229723 14.8452 0.252668 14.8452H0.41328H5.18575H5.17427Z" fill="white"/>
</mask>
<g mask="url(#mask1_5515_6562)">
<path d="M7.80095 10.153H0.217773V14.8566H7.80095V10.153Z" fill="url(#paint1_linear_5515_6562)"/>
</g>
<path d="M8.01884 10.3366L9.14312 12.436L10.2674 14.5354C10.3707 14.7419 10.3707 14.9484 10.2674 15.1664L9.2349 17.0937L8.03031 19.3423C7.89265 19.5947 7.76645 19.5832 7.65173 19.3423L6.44714 17.2543L5.24255 15.1664C5.10488 14.9599 5.11635 14.7419 5.24255 14.5354L6.36683 12.5966L7.67467 10.3366C7.77792 10.1186 7.89265 10.0612 8.03031 10.3366" fill="#E9CC7F"/>
<mask id="mask2_5515_6562" style="mask-type:luminance" maskUnits="userSpaceOnUse" x="25" y="14" width="9" height="6">
<path d="M28.5195 14.8451L25.9038 19.5028L33.292 15.0745C33.3608 15.0286 33.4067 14.9942 33.4296 14.9598C33.4526 14.9254 33.487 14.8565 33.4526 14.8565H33.292H28.5195V14.8451Z" fill="white"/>
</mask>
<g mask="url(#mask2_5515_6562)">
<path d="M33.4867 14.8451H25.915V19.5028H33.4867V14.8451Z" fill="url(#paint2_linear_5515_6562)"/>
</g>
<mask id="mask3_5515_6562" style="mask-type:luminance" maskUnits="userSpaceOnUse" x="25" y="10" width="9" height="5">
<path d="M28.531 14.8452L25.9038 10.153L33.3034 14.6272C33.3723 14.6731 33.4181 14.7075 33.4411 14.742C33.464 14.7764 33.487 14.8452 33.464 14.8452H33.3034H28.531Z" fill="white"/>
</mask>
<g mask="url(#mask3_5515_6562)">
<path d="M33.4762 10.1532H25.8931V14.8568H33.4762V10.1532Z" fill="url(#paint3_linear_5515_6562)"/>
</g>
<path d="M25.6746 10.3366L24.5504 12.436L23.4261 14.5354C23.3228 14.7419 23.3228 14.9484 23.4261 15.1664L24.4586 17.0937L25.6632 19.3423C25.8008 19.5947 25.927 19.5832 26.0418 19.3423L27.2463 17.2543L28.4509 15.1664C28.5886 14.9599 28.5771 14.7419 28.4509 14.5354L27.3266 12.5966L26.0188 10.3366C25.9156 10.1186 25.8008 10.0612 25.6632 10.3366" fill="#E9CC7F"/>
<path d="M33.6938 14.9025H33.7049" stroke="black" stroke-width="1.14723" stroke-miterlimit="10"/>
<mask id="mask4_5515_6562" style="mask-type:luminance" maskUnits="userSpaceOnUse" x="8" y="0" width="4" height="10">
<path d="M11.0014 4.73806L8.271 9.32697L8.42014 0.711296C8.42014 0.63099 8.44308 0.573629 8.45455 0.539212C8.46602 0.504795 8.52339 0.435962 8.53486 0.470379L8.61516 0.608046L11.0014 4.73806Z" fill="white"/>
</mask>
<g mask="url(#mask4_5515_6562)">
<path d="M11.0014 0.447418H8.271V9.32696H11.0014V0.447418Z" fill="url(#paint4_linear_5515_6562)"/>
</g>
<mask id="mask5_5515_6562" style="mask-type:luminance" maskUnits="userSpaceOnUse" x="8" y="0" width="9" height="5">
<path d="M11.002 4.72657L16.3825 4.65774L8.81078 0.493305C8.74195 0.458888 8.68459 0.435944 8.6387 0.435944C8.59281 0.435944 8.52398 0.435944 8.53545 0.47036L8.61576 0.608028L11.002 4.73805V4.72657Z" fill="white"/>
</mask>
<g mask="url(#mask5_5515_6562)">
<path d="M16.3819 0.424683H8.52344V4.72679H16.3819V0.424683Z" fill="url(#paint5_linear_5515_6562)"/>
</g>
<path d="M16.3244 4.94465L15.074 6.97524L13.8235 9.00584C13.6973 9.18939 13.5137 9.30412 13.2843 9.31559L11.0931 9.38442L8.54625 9.46473C8.25944 9.46473 8.20208 9.36148 8.35122 9.13203L9.55581 7.04408L10.7604 4.95612C10.8751 4.72668 11.0587 4.6349 11.3111 4.6349H13.5482H16.1524C16.3933 4.61195 16.508 4.69226 16.3244 4.94465Z" fill="#E9CC7F"/>
<path d="M8.36328 0.286387V0.27536" stroke="black" stroke-width="1.14723" stroke-miterlimit="10"/>
<mask id="mask6_5515_6562" style="mask-type:luminance" maskUnits="userSpaceOnUse" x="17" y="24" width="9" height="6">
<path d="M22.6693 24.9523L17.3232 25.0212L24.8491 29.1971C24.9179 29.2315 24.9752 29.2544 25.0211 29.2544C25.067 29.2544 25.1359 29.2544 25.1244 29.22L25.0441 29.0824L22.6578 24.9523H22.6693Z" fill="white"/>
</mask>
<g mask="url(#mask6_5515_6562)">
<path d="M25.1581 24.9523H17.334V29.2658H25.1581V24.9523Z" fill="url(#paint6_linear_5515_6562)"/>
</g>
<mask id="mask7_5515_6562" style="mask-type:luminance" maskUnits="userSpaceOnUse" x="22" y="20" width="4" height="10">
<path d="M22.6807 24.9522L25.4225 20.3289L25.2505 28.9675C25.2505 29.0478 25.2275 29.1052 25.216 29.1396C25.2046 29.174 25.1472 29.2429 25.1357 29.2085L25.0554 29.0708L22.6807 24.9408V24.9522Z" fill="white"/>
</mask>
<g mask="url(#mask7_5515_6562)">
<path d="M25.4225 20.3289H22.6807V29.2429H25.4225V20.3289Z" fill="url(#paint7_linear_5515_6562)"/>
</g>
<path d="M25.1584 20.2372L22.7722 20.3061L20.3859 20.3749C20.1565 20.3864 19.9729 20.4896 19.8467 20.6847L18.6995 22.5432L17.3573 24.7114C17.2081 24.9523 17.277 25.0556 17.5408 25.0441H19.95H22.3592C22.6116 25.0556 22.7836 24.9409 22.9098 24.7229L24.0227 22.7841L25.3305 20.524C25.4682 20.3175 25.4567 20.1913 25.1469 20.2143" fill="#E9CC7F"/>
<mask id="mask8_5515_6562" style="mask-type:luminance" maskUnits="userSpaceOnUse" x="17" y="0" width="9" height="5">
<path d="M22.6693 4.72669L17.3232 4.65786L24.8605 0.470478C24.9294 0.436061 24.9867 0.413116 25.0326 0.413116C25.0785 0.413116 25.1473 0.413116 25.1359 0.447533L25.0556 0.585201L22.6693 4.71522V4.72669Z" fill="white"/>
</mask>
<g mask="url(#mask8_5515_6562)">
<path d="M25.1581 0.413208H17.334V4.72678H25.1581V0.413208Z" fill="url(#paint8_linear_5515_6562)"/>
</g>
<mask id="mask9_5515_6562" style="mask-type:luminance" maskUnits="userSpaceOnUse" x="22" y="0" width="4" height="10">
<path d="M22.6807 4.71524L25.4225 9.33857L25.2505 0.688469C25.2505 0.608163 25.2275 0.550802 25.216 0.516385C25.2046 0.481968 25.1472 0.413135 25.1357 0.447551L25.0554 0.585219L22.6807 4.71524Z" fill="white"/>
</mask>
<g mask="url(#mask9_5515_6562)">
<path d="M25.4225 0.424591H22.6807V9.33855H25.4225V0.424591Z" fill="url(#paint9_linear_5515_6562)"/>
</g>
<path d="M25.1584 9.44171L22.7722 9.37288L20.3859 9.30405C20.1565 9.29257 19.9729 9.18932 19.8467 8.9943L18.6995 7.13579L17.3573 4.96753C17.2081 4.72661 17.277 4.62336 17.5408 4.63483H19.95H22.3592C22.6116 4.62336 22.7836 4.73808 22.9098 4.95605L24.0227 6.89487L25.3305 9.15491C25.4682 9.36141 25.4567 9.4876 25.1469 9.46466" fill="#E9CC7F"/>
<mask id="mask10_5515_6562" style="mask-type:luminance" maskUnits="userSpaceOnUse" x="8" y="20" width="4" height="10">
<path d="M11.0014 24.9294L8.271 20.3405L8.42014 28.9562C8.42014 29.0365 8.44308 29.0938 8.45455 29.1282C8.46602 29.1627 8.52339 29.2315 8.53486 29.1971L8.61516 29.0594L11.0014 24.9294Z" fill="white"/>
</mask>
<g mask="url(#mask10_5515_6562)">
<path d="M11.0014 20.3405H8.271V29.22H11.0014V20.3405Z" fill="url(#paint10_linear_5515_6562)"/>
</g>
<mask id="mask11_5515_6562" style="mask-type:luminance" maskUnits="userSpaceOnUse" x="8" y="24" width="9" height="6">
<path d="M11.002 24.9408L16.3825 25.0096L8.81078 29.1855C8.74195 29.22 8.68459 29.2429 8.6387 29.2429C8.59281 29.2429 8.52398 29.2429 8.53545 29.2085L8.61576 29.0708L11.002 24.9408Z" fill="white"/>
</mask>
<g mask="url(#mask11_5515_6562)">
<path d="M16.3819 24.9407H8.52344V29.2428H16.3819V24.9407Z" fill="url(#paint11_linear_5515_6562)"/>
</g>
<path d="M16.3244 24.7228L15.074 22.6922L13.8235 20.6616C13.6973 20.4781 13.5137 20.3633 13.2843 20.3519L11.0931 20.283L8.54625 20.2027C8.25944 20.2027 8.20208 20.306 8.35122 20.5354L9.55581 22.6234L10.7604 24.7113C10.8751 24.9408 11.0587 25.0326 11.3111 25.0326H13.5482H16.1524C16.3933 25.0555 16.508 24.9752 16.3244 24.7228Z" fill="#E9CC7F"/>
<path d="M25.5254 29.6899V29.6789" stroke="black" stroke-width="1.14723" stroke-miterlimit="10"/>
<path d="M8.37402 29.6899V29.6789" stroke="black" stroke-width="1.14723" stroke-miterlimit="10"/>
<path d="M115.044 10.543C114.848 10.348 114.573 10.2218 114.275 10.2218C113.977 10.2218 113.701 10.348 113.506 10.543C113.311 10.7381 113.185 11.0134 113.185 11.3117C113.185 11.61 113.311 11.8853 113.506 12.0803C113.701 12.2754 113.977 12.4016 114.275 12.4016C114.573 12.4016 114.848 12.2754 115.044 12.0803C115.239 11.8853 115.365 11.61 115.365 11.3117C115.365 11.0134 115.239 10.7381 115.044 10.543ZM114.275 10.0153C114.631 10.0153 114.952 10.1645 115.193 10.3939C115.422 10.6234 115.571 10.9446 115.571 11.3117C115.571 11.6788 115.422 11.9886 115.193 12.2295C114.963 12.4589 114.631 12.6081 114.275 12.6081C113.919 12.6081 113.598 12.4589 113.357 12.2295C113.116 12 112.979 11.6788 112.979 11.3117C112.979 10.9446 113.128 10.6348 113.357 10.3939C113.587 10.153 113.908 10.0153 114.275 10.0153Z" fill="#4D008B"/>
<path d="M114.046 11.2085H114.23C114.344 11.2085 114.425 11.2085 114.448 11.197C114.482 11.197 114.505 11.1741 114.516 11.1511C114.528 11.1282 114.539 11.0938 114.539 11.0593C114.539 11.0135 114.539 10.9905 114.505 10.9561C114.482 10.9331 114.448 10.9102 114.413 10.9102C114.39 10.9102 114.333 10.9102 114.23 10.9102H114.035V11.22L114.046 11.2085ZM113.805 11.9083V10.6922H114.321C114.448 10.6922 114.551 10.6922 114.608 10.7266C114.666 10.7496 114.711 10.784 114.746 10.8414C114.78 10.8987 114.803 10.9561 114.803 11.0364C114.803 11.1282 114.78 11.2085 114.723 11.2658C114.666 11.3232 114.585 11.3576 114.482 11.3806C114.539 11.415 114.574 11.4494 114.608 11.4838C114.643 11.5182 114.689 11.5871 114.746 11.6788L114.895 11.9198H114.597L114.425 11.6559C114.356 11.5641 114.321 11.5068 114.298 11.4723C114.276 11.4494 114.253 11.4265 114.23 11.4265C114.207 11.4265 114.161 11.415 114.103 11.415H114.058V11.9198H113.805V11.9083Z" fill="#4D008B"/>
</g>
<defs>
<linearGradient id="paint0_linear_5515_6562" x1="4.11835" y1="15.2121" x2="4.14129" y2="14.7991" gradientUnits="userSpaceOnUse">
<stop stop-color="#AA8144"/>
<stop offset="1" stop-color="#E9CC7F"/>
</linearGradient>
<linearGradient id="paint1_linear_5515_6562" x1="4.17571" y1="14.5125" x2="4.21013" y2="14.9484" gradientUnits="userSpaceOnUse">
<stop stop-color="#CCA251"/>
<stop offset="1" stop-color="#E9CC7F"/>
</linearGradient>
<linearGradient id="paint2_linear_5515_6562" x1="29.5862" y1="15.2122" x2="29.5632" y2="14.7992" gradientUnits="userSpaceOnUse">
<stop stop-color="#AA8144"/>
<stop offset="1" stop-color="#E9CC7F"/>
</linearGradient>
<linearGradient id="paint3_linear_5515_6562" x1="29.5298" y1="14.5126" x2="29.4954" y2="14.9486" gradientUnits="userSpaceOnUse">
<stop stop-color="#CCA251"/>
<stop offset="1" stop-color="#E9CC7F"/>
</linearGradient>
<linearGradient id="paint4_linear_5515_6562" x1="10.4048" y1="4.49713" x2="10.772" y2="4.31357" gradientUnits="userSpaceOnUse">
<stop stop-color="#AA8144"/>
<stop offset="1" stop-color="#E9CC7F"/>
</linearGradient>
<linearGradient id="paint5_linear_5515_6562" x1="10.7949" y1="3.70575" x2="10.4393" y2="3.94667" gradientUnits="userSpaceOnUse">
<stop stop-color="#CCA251"/>
<stop offset="1" stop-color="#E9CC7F"/>
</linearGradient>
<linearGradient id="paint6_linear_5515_6562" x1="22.898" y1="26.0536" x2="23.2422" y2="25.8356" gradientUnits="userSpaceOnUse">
<stop stop-color="#AA8144"/>
<stop offset="1" stop-color="#E9CC7F"/>
</linearGradient>
<linearGradient id="paint7_linear_5515_6562" x1="23.2428" y1="25.1702" x2="22.8527" y2="25.3538" gradientUnits="userSpaceOnUse">
<stop stop-color="#CCA251"/>
<stop offset="1" stop-color="#E9CC7F"/>
</linearGradient>
<linearGradient id="paint8_linear_5515_6562" x1="22.8636" y1="3.64839" x2="23.2078" y2="3.87784" gradientUnits="userSpaceOnUse">
<stop stop-color="#AA8144"/>
<stop offset="1" stop-color="#E9CC7F"/>
</linearGradient>
<linearGradient id="paint9_linear_5515_6562" x1="23.2428" y1="4.49725" x2="22.8527" y2="4.31369" gradientUnits="userSpaceOnUse">
<stop stop-color="#CCA251"/>
<stop offset="1" stop-color="#E9CC7F"/>
</linearGradient>
<linearGradient id="paint10_linear_5515_6562" x1="10.4163" y1="25.1933" x2="10.7834" y2="25.3883" gradientUnits="userSpaceOnUse">
<stop stop-color="#AA8144"/>
<stop offset="1" stop-color="#E9CC7F"/>
</linearGradient>
<linearGradient id="paint11_linear_5515_6562" x1="10.8179" y1="25.9388" x2="10.4623" y2="25.6864" gradientUnits="userSpaceOnUse">
<stop stop-color="#CCA251"/>
<stop offset="1" stop-color="#E9CC7F"/>
</linearGradient>
<clipPath id="clip0_5515_6562">
<rect width="115.572" height="30" fill="white"/>
</clipPath>
</defs>
</svg>
