<svg width="14" height="19" viewBox="0 0 14 19" fill="none" xmlns="http://www.w3.org/2000/svg">
<path d="M0.942858 7.01428H1.57143V4.95714C1.57143 4.67143 1.8 4.38571 2.14286 4.38571C2.42857 4.38571 2.71429 4.67143 2.71429 4.95714V7.01428H3.34286C3.62857 7.01428 3.91429 7.24285 3.91429 7.58571V15.3571C3.91429 15.7 3.62857 15.9286 3.34286 15.9286H2.71429V17.9286C2.71429 18.2714 2.42857 18.5 2.14286 18.5C1.8 18.5 1.57143 18.2714 1.57143 17.9286V15.9286H0.942858C0.600001 15.9286 0.371429 15.7 0.371429 15.3571V7.58571C0.371429 7.24285 0.600001 7.01428 0.942858 7.01428ZM2.77143 8.15714H1.51429V14.7857H2.77143V8.15714Z" fill="#FDFDFD"/>
<path d="M5.80001 3.07143H6.42858V1.07143C6.42858 0.728571 6.65715 0.5 7.00001 0.5C7.28572 0.5 7.57143 0.728571 7.57143 1.07143V3.07143H8.20001C8.48572 3.07143 8.77143 3.35714 8.77143 3.64286V11.4714C8.77143 11.7571 8.48572 12.0429 8.20001 12.0429H7.57143V14.0429C7.57143 14.3857 7.28572 14.6143 7.00001 14.6143C6.65715 14.6143 6.42858 14.3857 6.42858 14.0429V12.0429H5.80001C5.45715 12.0429 5.22858 11.7571 5.22858 11.4714V3.64286C5.22858 3.35714 5.45715 3.07143 5.80001 3.07143ZM7.62858 4.21429H6.37143V10.9H7.62858V4.21429Z" fill="#FDFDFD"/>
<path d="M10.6571 7.01428H11.2857V4.95714C11.2857 4.67143 11.5143 4.38571 11.8571 4.38571C12.1428 4.38571 12.4286 4.67143 12.4286 4.95714V7.01428H13.0571C13.3428 7.01428 13.6286 7.24285 13.6286 7.58571V15.3571C13.6286 15.7 13.3428 15.9286 13.0571 15.9286H12.4286V17.9286C12.4286 18.2714 12.1428 18.5 11.8571 18.5C11.5143 18.5 11.2857 18.2714 11.2857 17.9286V15.9286H10.6571C10.3143 15.9286 10.0857 15.7 10.0857 15.3571V7.58571C10.0857 7.24285 10.3143 7.01428 10.6571 7.01428ZM12.4857 8.15714H11.2286V14.7857H12.4857V8.15714Z" fill="#FDFDFD"/>
</svg>
